<?xml version="1.0" encoding="utf-8"?>
<!-- Generator: Adobe Illustrator 23.1.0, SVG Export Plug-In . SVG Version: 6.00 Build 0)  -->
<svg version="1.1" id="Layer_1" xmlns="http://www.w3.org/2000/svg" xmlns:xlink="http://www.w3.org/1999/xlink" x="0px" y="0px"
	 viewBox="0 0 512 512" style="enable-background:new 0 0 512 512;" xml:space="preserve">
<style type="text/css">
	.st0{fill:#FFFFFF;}
</style>
<path class="st0" d="M243.2,189.9V258c26.1,5.9,49.3,15.6,73.6,22.3v-68.2C290.8,206.3,267.4,196.6,243.2,189.9L243.2,189.9z
	 M466.5,66.9c-34.3,15.9-76.5,31.9-117,31.9C296,98.8,251.7,64,184.3,64c-25,0-47.3,4.4-68,12c2.8-7.3,4.1-15.2,3.6-23.6
	C118.1,24,94.8,1.2,66.3,0C34.3-1.3,8,24.3,8,56c0,19,9.5,35.8,24,45.9V488c0,13.3,10.7,24,24,24h16c13.3,0,24-10.7,24-24v-94.4
	c28.3-12.1,63.6-22.1,114.4-22.1c53.6,0,97.8,34.8,165.2,34.8c48.2,0,86.7-16.3,122.5-40.9c8.7-6,13.8-15.8,13.8-26.4V95.9
	C512,72.6,487.7,57.1,466.5,66.9L466.5,66.9z M169.6,325.5c-25.8,2.7-50,8.2-73.6,16.6v-70.5c26.2-9.3,47.5-15,73.6-17.4V325.5z
	 M464,191c-23.6,9.8-46.3,19.5-73.6,23.9V286c24.8-3.4,51.4-11.8,73.6-26v70.5c-25.1,16.1-48.5,24.7-73.6,27.1V286
	c-27,3.7-47.9,1.5-73.6-5.6v67.4c-23.9-7.4-47.3-16.7-73.6-21.3V258c-19.7-4.4-40.8-6.8-73.6-3.8v-70c-22.4,3.1-44.6,10.2-73.6,20.9
	v-70.5c33.2-12.2,50.1-19.8,73.6-22v71.6c27-3.7,48.4-1.3,73.6,5.7v-67.4c23.7,7.4,47.2,16.7,73.6,21.3v68.4
	c23.7,5.3,47.6,6.9,73.6,2.7V143c27-4.8,52.3-13.6,73.6-22.5V191z"/>
</svg>
