<?xml version="1.0" encoding="utf-8"?>
<!-- Generator: Adobe Illustrator 23.1.0, SVG Export Plug-In . SVG Version: 6.00 Build 0)  -->
<svg version="1.1" id="Layer_1" xmlns="http://www.w3.org/2000/svg" xmlns:xlink="http://www.w3.org/1999/xlink" x="0px" y="0px"
	 viewBox="0 0 576 512" style="enable-background:new 0 0 576 512;" xml:space="preserve">
<style type="text/css">
	.st0{fill:#FFFFFF;}
</style>
<path class="st0" d="M560,448h-16V96H32v352H16c-8.8,0-16,7.2-16,16v32c0,8.8,7.2,16,16,16h160c8.8,0,16-7.2,16-16V320
	c0-53,43-96,96-96s96,43,96,96l0,160v16c0,8.8,7.2,16,16,16h160c8.8,0,16-7.2,16-16v-32C576,455.2,568.8,448,560,448z M560,0H16
	C7.2,0,0,7.2,0,16v32c0,8.8,7.2,16,16,16h544c8.8,0,16-7.2,16-16V16C576,7.2,568.8,0,560,0z"/>
</svg>
