<?xml version="1.0" encoding="utf-8"?>
<!-- Generator: Adobe Illustrator 23.1.0, SVG Export Plug-In . SVG Version: 6.00 Build 0)  -->
<svg version="1.1" id="Layer_1" xmlns="http://www.w3.org/2000/svg" xmlns:xlink="http://www.w3.org/1999/xlink" x="0px" y="0px"
	 viewBox="0 0 320 640" style="enable-background:new 0 0 320 640;" xml:space="preserve">
<style type="text/css">
	.st0{fill:#FFFFFF;}
</style>
<path class="st0" d="M168.6,124.8c-3.5-12.1-7.8-33.2-7.8-33.2h-0.5c0,0-4.3,21.1-7.8,33.2l-11.1,37.5h38.1L168.6,124.8z M320,616
	V336H0l0,280c0,13.3,10.7,24,24,24h272C309.3,640,320,629.3,320,616z M140,428v-16c0-6.6,5.4-12,12-12h16c6.6,0,12,5.4,12,12v16h64
	c6.6,0,12,5.4,12,12v16c0,6.6-5.4,12-12,12h-11.4c-6.9,23.6-21.7,47.4-42.7,69.9c8.4,6.4,17.1,12.5,26.1,18
	c5.5,3.4,7.3,10.5,4.1,16.2l-7.9,13.9c-3.4,5.9-10.9,7.8-16.7,4.3c-12.6-7.8-24.5-16.1-35.4-24.9c-10.9,8.7-22.7,17.1-35.4,24.9
	c-5.8,3.5-13.3,1.6-16.7-4.3l-7.9-13.9c-3.2-5.6-1.4-12.8,4.2-16.2c9.3-5.7,18-11.7,26.1-18c-7.9-8.4-14.9-17-21-25.7
	c-4-5.7-2.2-13.6,3.7-17.1l6.5-3.9l7.3-4.3c5.4-3.2,12.4-1.7,16,3.4c5,7,10.8,14,17.4,20.9c13.5-14.2,23.8-28.9,30-43.2H76
	c-6.6,0-12-5.4-12-12v-16c0-6.6,5.4-12,12-12 M296,0H24C10.7,0,0,10.7,0,24v280h320V24C320,10.7,309.3,0,296,0z M75.4,224.7
	l57.5-169.1c1.7-4.9,6.2-8.1,11.4-8.1h32.5c5.1,0,9.7,3.3,11.4,8.1l57.5,169.1c2.6,7.8-3.1,15.9-11.4,15.9h-22.9
	c-5.3,0-10-3.5-11.5-8.6l-9.4-31.9h-60.2l-9.1,31.8c-1.5,5.1-6.2,8.7-11.5,8.7H86.8C78.6,240.6,72.8,232.5,75.4,224.7z"/>
</svg>
