<?xml version="1.0" encoding="utf-8"?>
<!-- Generator: Adobe Illustrator 23.1.0, SVG Export Plug-In . SVG Version: 6.00 Build 0)  -->
<svg version="1.1" id="Layer_1" xmlns="http://www.w3.org/2000/svg" xmlns:xlink="http://www.w3.org/1999/xlink" x="0px" y="0px"
	 viewBox="0 0 512 512" style="enable-background:new 0 0 512 512;" xml:space="preserve">
<style type="text/css">
	.st0{fill:#FFFFFF;}
</style>
<path class="st0" d="M502.6,214.6l-45.3-45.3c-6-6-14.1-9.4-22.6-9.4H384V80c0-26.5-21.5-48-48-48H176c-26.5,0-48,21.5-48,48v80
	H77.3c-8.5,0-16.6,3.4-22.6,9.4L9.4,214.6c-6,6-9.4,14.1-9.4,22.6V320h128v-16c0-8.8,7.2-16,16-16h32c8.8,0,16,7.2,16,16v16h128v-16
	c0-8.8,7.2-16,16-16h32c8.8,0,16,7.2,16,16v16h128v-82.8C512,228.8,508.6,220.6,502.6,214.6z M320,160H192V96h128V160z M384,368
	c0,8.8-7.2,16-16,16h-32c-8.8,0-16-7.2-16-16v-16H192v16c0,8.8-7.2,16-16,16h-32c-8.8,0-16-7.2-16-16v-16H0v96c0,17.7,14.3,32,32,32
	h448c17.7,0,32-14.3,32-32v-96H384V368z"/>
</svg>
